<svg width="23" height="19" viewBox="0 0 23 19" fill="none" xmlns="http://www.w3.org/2000/svg">
<path d="M16.71 7.00002L12.33 0.44002C12.14 0.16002 11.82 0.0200195 11.5 0.0200195C11.18 0.0200195 10.86 0.16002 10.67 0.45002L6.29 7.00002H1.5C0.95 7.00002 0.5 7.45002 0.5 8.00002C0.5 8.09002 0.51 8.18002 0.54 8.27002L3.08 17.54C3.31 18.38 4.08 19 5 19H18C18.92 19 19.69 18.38 19.93 17.54L22.47 8.27002L22.5 8.00002C22.5 7.45002 22.05 7.00002 21.5 7.00002H16.71ZM8.5 7.00002L11.5 2.60002L14.5 7.00002H8.5Z" fill="#76B043"/>
<path d="M7 10L7 16" stroke="white" stroke-width="1.5" stroke-linecap="round"/>
<path d="M11.5 10L11.5 16" stroke="white" stroke-width="1.5" stroke-linecap="round"/>
<path d="M16 10L16 16" stroke="white" stroke-width="1.5" stroke-linecap="round"/>
</svg>
