<svg width="14" height="12" viewBox="0 0 14 12" fill="none" xmlns="http://www.w3.org/2000/svg">
<path d="M1.75 3.48528H4.123C3.95275 3.36903 3.8065 3.25353 3.7045 3.15003C3.1 2.54178 3.1 1.55178 3.7045 0.943531C4.29175 0.352531 5.31625 0.351781 5.90425 0.943531C6.229 1.26978 7.09225 2.59803 6.973 3.48528H7.027C6.9085 2.59803 7.771 1.26978 8.09575 0.943531C8.68375 0.351781 9.70825 0.352531 10.2955 0.943531C10.9 1.55178 10.9 2.54178 10.2962 3.15003C10.1935 3.25353 10.0472 3.36903 9.877 3.48528H12.25C12.6632 3.48528 13 3.82203 13 4.23528V6.11028C13 6.31728 12.832 6.48528 12.625 6.48528H12.25V10.9853C12.25 11.3985 11.9132 11.7353 11.5 11.7353H2.5C2.08675 11.7353 1.75 11.3985 1.75 10.9853V6.48528H1.375C1.168 6.48528 1 6.31728 1 6.11028V4.23528C1 3.82203 1.33675 3.48528 1.75 3.48528ZM9.76375 1.47228C9.6115 1.31928 9.40975 1.23528 9.19525 1.23528C8.9815 1.23528 8.77975 1.31928 8.6275 1.47228C8.122 1.98078 7.6195 3.27978 7.79425 3.46053C7.79425 3.46053 7.82575 3.48528 7.933 3.48528C8.45125 3.48528 9.4405 2.94678 9.76375 2.62128C10.078 2.30478 10.078 1.78878 9.76375 1.47228ZM7.375 10.9853H11.5V6.48528H7.375V10.9853ZM7.375 5.73528H12.25V4.23528H7.933H7.375V5.73528ZM5.3725 1.47228C5.068 1.16703 4.54 1.16778 4.23625 1.47228C3.922 1.78878 3.922 2.30478 4.23625 2.62128C4.5595 2.94678 5.54875 3.48528 6.067 3.48528C6.17425 3.48528 6.2065 3.46053 6.2065 3.46053C6.3805 3.27978 5.878 1.98078 5.3725 1.47228ZM2.5 10.9853H6.625V6.48528H2.5V10.9853ZM1.75 5.73528H6.625V4.23528H6.067H1.75V5.73528Z" fill="white"/>
<path fill-rule="evenodd" clip-rule="evenodd" d="M10.4376 0.802549C9.77217 0.132905 8.62034 0.132031 7.95407 0.802548C7.7717 0.985823 7.46361 1.41932 7.2164 1.91472C7.13824 2.07133 7.06358 2.23916 7.00036 2.41157C6.93713 2.23914 6.86245 2.0713 6.78426 1.91469C6.53688 1.41916 6.22852 0.985597 6.04619 0.802424C5.37991 0.132031 4.22818 0.132946 3.56282 0.802549C2.88271 1.4869 2.88082 2.59855 3.55717 3.28527H1.75019C1.22649 3.28527 0.800196 3.71156 0.800196 4.23527V6.11027C0.800196 6.42773 1.05774 6.68527 1.37519 6.68527H1.5502V10.9853C1.5502 11.509 1.97649 11.9353 2.50019 11.9353H11.5002C12.0239 11.9353 12.4502 11.509 12.4502 10.9853V6.68527H12.6252C12.9427 6.68527 13.2002 6.42773 13.2002 6.11027V4.23527C13.2002 3.71156 12.7739 3.28527 12.2502 3.28527H10.444C11.1196 2.59857 11.1177 1.48691 10.4376 0.802549ZM8.23782 1.08449C8.74755 0.571508 9.64472 0.572133 10.1538 1.08449C10.6808 1.61475 10.6808 2.47886 10.1545 3.00911C10.0642 3.10005 9.92939 3.20745 9.76441 3.3201L9.22962 3.68527H12.2502C12.553 3.68527 12.8002 3.93248 12.8002 4.23527V6.11027C12.8002 6.20681 12.7217 6.28527 12.6252 6.28527H12.0502V10.9853C12.0502 11.2881 11.803 11.5353 11.5002 11.5353H2.50019C2.1974 11.5353 1.9502 11.2881 1.9502 10.9853V6.28527H1.37519C1.27865 6.28527 1.2002 6.20681 1.2002 6.11027V4.23527C1.2002 3.93248 1.4474 3.68527 1.75019 3.68527H4.77077L4.23598 3.3201C4.07089 3.20738 3.93637 3.10017 3.84715 3.00963C3.32017 2.47939 3.31958 1.61475 3.84655 1.0845C4.35566 0.572146 5.25284 0.571508 5.76258 1.08449C5.90499 1.22757 6.19076 1.62138 6.42638 2.09335C6.66461 2.57056 6.82613 3.07802 6.77498 3.45863L6.74452 3.68527H7.25568L7.22544 3.45879C7.17459 3.07807 7.33617 2.57052 7.57431 2.09332C7.80985 1.62133 8.09543 1.22754 8.23782 1.08449ZM9.19545 1.43527C9.35646 1.43527 9.50727 1.49787 9.62218 1.61334C9.85899 1.85185 9.85884 2.24184 9.62202 2.48035C9.48296 2.62038 9.17737 2.82481 8.83263 2.99626C8.49862 3.16237 8.17201 3.27519 7.96105 3.28463C7.96349 3.25708 7.96828 3.22345 7.97609 3.18361C8.00323 3.04524 8.06068 2.8629 8.14126 2.66459C8.30425 2.26348 8.54412 1.84006 8.76946 1.61334C8.88444 1.4978 9.03528 1.43527 9.19545 1.43527ZM9.90571 1.3312C9.71612 1.14067 9.46343 1.03527 9.19545 1.03527C8.92811 1.03527 8.67545 1.14074 8.48593 1.3312C8.20579 1.61299 7.94162 2.09336 7.77069 2.51401C7.6843 2.72661 7.6173 2.93469 7.58357 3.10661C7.56685 3.19185 7.55669 3.27618 7.55948 3.35146C7.56191 3.41694 7.57521 3.52149 7.65066 3.59953L7.66015 3.60935L7.67088 3.61778L7.79445 3.46052C7.67088 3.61778 7.67088 3.61778 7.67088 3.61778L7.67191 3.61858L7.67295 3.61938L7.67507 3.62099L7.67952 3.62421C7.68256 3.62636 7.68578 3.62851 7.68916 3.63065C7.69593 3.63493 7.70333 3.63913 7.71142 3.64318C7.72761 3.6513 7.74629 3.6587 7.76776 3.66494C7.81052 3.67737 7.86449 3.68527 7.9332 3.68527C8.2421 3.68527 8.65485 3.53141 9.01076 3.35441C9.37101 3.17524 9.72166 2.94767 9.90586 2.7622C10.2975 2.36771 10.2974 1.72568 9.90571 1.3312ZM7.96164 3.35903L7.96105 3.35666ZM4.37815 1.6134C4.60388 1.38725 5.00484 1.38676 5.23105 1.61347C5.45636 1.84022 5.69617 2.26355 5.85924 2.66463C5.93987 2.86295 5.99739 3.04532 6.02464 3.18374C6.03247 3.22351 6.03728 3.25711 6.03976 3.28465C5.82881 3.27534 5.50199 3.16248 5.16776 2.99626C4.82302 2.82481 4.51744 2.62038 4.37837 2.48035C4.14163 2.24191 4.14155 1.85194 4.37815 1.6134ZM5.51429 1.33102C5.13153 0.947315 4.47662 0.948305 4.09485 1.33102C3.70317 1.72551 3.70284 2.3677 4.09452 2.76219C4.27871 2.94766 4.62938 3.17524 4.98963 3.35441C5.34554 3.53141 5.75829 3.68527 6.0672 3.68527C6.13535 3.68527 6.18902 3.67768 6.23172 3.66551C6.25317 3.6594 6.2721 3.65205 6.28875 3.64377C6.29704 3.63964 6.30492 3.63521 6.31236 3.63047C6.31603 3.62813 6.31991 3.62551 6.32388 3.62262L6.33092 3.61727C6.33092 3.61727 6.3392 3.61086 6.34812 3.60194L6.35081 3.59925C6.42603 3.52111 6.43908 3.41655 6.44142 3.3512C6.44411 3.27597 6.43388 3.1917 6.41711 3.10648C6.38328 2.93461 6.31621 2.72656 6.22978 2.51397C6.05877 2.09335 5.79442 1.61282 5.51429 1.33102ZM6.03926 3.35939L6.03985 3.35702ZM12.4502 4.03527H7.1752V5.93527H12.4502V4.03527ZM12.0502 4.43527V5.53527H7.5752V4.43527H12.0502ZM6.8252 4.03527H1.5502V5.93527H6.8252V4.03527ZM6.4252 4.43527V5.53527H1.9502V4.43527H6.4252ZM11.7002 6.28527H7.1752V11.1853H11.7002V6.28527ZM11.3002 6.68527V10.7853H7.5752V6.68527H11.3002ZM6.8252 6.28527H2.3002V11.1853H6.8252V6.28527ZM6.4252 6.68527V10.7853H2.7002V6.68527H6.4252Z" fill="white"/>
</svg>
