<svg width="16" height="14" viewBox="0 0 16 14" fill="none" xmlns="http://www.w3.org/2000/svg">
<path d="M1.33301 5.75C0.641341 5.75 0.0830078 6.30833 0.0830078 7C0.0830078 7.69167 0.641341 8.25 1.33301 8.25C2.02467 8.25 2.58301 7.69167 2.58301 7C2.58301 6.30833 2.02467 5.75 1.33301 5.75ZM1.33301 0.75C0.641341 0.75 0.0830078 1.30833 0.0830078 2C0.0830078 2.69167 0.641341 3.25 1.33301 3.25C2.02467 3.25 2.58301 2.69167 2.58301 2C2.58301 1.30833 2.02467 0.75 1.33301 0.75ZM1.33301 10.75C0.641341 10.75 0.0830078 11.3167 0.0830078 12C0.0830078 12.6833 0.649675 13.25 1.33301 13.25C2.01634 13.25 2.58301 12.6833 2.58301 12C2.58301 11.3167 2.02467 10.75 1.33301 10.75ZM3.83301 12.8333H15.4997V11.1667H3.83301V12.8333ZM3.83301 7.83333H15.4997V6.16667H3.83301V7.83333ZM3.83301 1.16667V2.83333H15.4997V1.16667H3.83301Z" fill="white"/>
</svg>
