<svg width="16" height="16" viewBox="0 0 16 16" fill="none" xmlns="http://www.w3.org/2000/svg">
<circle cx="8" cy="8" r="7.75" stroke="#81747F" stroke-width="0.5"/>
<path d="M7.65 10.053C7.64267 10.0163 7.639 9.976 7.639 9.932C7.639 9.888 7.639 9.84767 7.639 9.811C7.639 9.503 7.683 9.23167 7.771 8.997C7.86633 8.76233 7.98 8.54967 8.112 8.359C8.25133 8.161 8.398 7.97767 8.552 7.809C8.71333 7.64033 8.86 7.47167 8.992 7.303C9.13133 7.127 9.245 6.94367 9.333 6.753C9.42833 6.555 9.476 6.33133 9.476 6.082C9.476 5.74467 9.377 5.46967 9.179 5.257C8.98833 5.04433 8.66567 4.938 8.211 4.938C7.947 4.938 7.67933 4.98567 7.408 5.081C7.13667 5.169 6.902 5.27533 6.704 5.4L6.407 4.718C6.68567 4.54933 6.979 4.41733 7.287 4.322C7.595 4.21933 7.97633 4.168 8.431 4.168C8.75367 4.168 9.036 4.21567 9.278 4.311C9.52733 4.399 9.73267 4.52367 9.894 4.685C10.0627 4.84633 10.1873 5.037 10.268 5.257C10.3487 5.477 10.389 5.71167 10.389 5.961C10.389 6.291 10.3377 6.58067 10.235 6.83C10.1397 7.072 10.015 7.29567 9.861 7.501C9.71433 7.699 9.553 7.886 9.377 8.062C9.20833 8.238 9.047 8.425 8.893 8.623C8.74633 8.81367 8.62167 9.02267 8.519 9.25C8.42367 9.47733 8.376 9.745 8.376 10.053H7.65ZM7.43 11.494C7.43 11.296 7.485 11.142 7.595 11.032C7.71233 10.9147 7.86633 10.856 8.057 10.856C8.255 10.856 8.41267 10.9147 8.53 11.032C8.64733 11.142 8.706 11.296 8.706 11.494C8.706 11.6847 8.64733 11.8387 8.53 11.956C8.41267 12.0733 8.255 12.132 8.057 12.132C7.86633 12.132 7.71233 12.0733 7.595 11.956C7.485 11.8387 7.43 11.6847 7.43 11.494Z" fill="#4C3849"/>
</svg>
